<mxfile host="Electron" agent="Mozilla/5.0 (X11; Linux x86_64) AppleWebKit/537.36 (KHTML, like Gecko) draw.io/24.7.5 Chrome/126.0.6478.234 Electron/31.4.0 Safari/537.36" version="24.7.5">
  <diagram name="Page-1" id="b-hXU5d7v4bI59rn8OH2">
    <mxGraphModel dx="869" dy="590" grid="1" gridSize="5" guides="1" tooltips="1" connect="1" arrows="1" fold="1" page="1" pageScale="1" pageWidth="1100" pageHeight="850" math="0" shadow="0">
      <root>
        <mxCell id="0" />
        <mxCell id="1" parent="0" />
        <mxCell id="JPSjPqsW3roWkfqV_JE0-22" style="edgeStyle=orthogonalEdgeStyle;rounded=0;orthogonalLoop=1;jettySize=auto;html=1;exitX=1;exitY=0.25;exitDx=0;exitDy=0;entryX=0;entryY=0.5;entryDx=0;entryDy=0;" edge="1" parent="1" source="JPSjPqsW3roWkfqV_JE0-1" target="JPSjPqsW3roWkfqV_JE0-10">
          <mxGeometry relative="1" as="geometry" />
        </mxCell>
        <mxCell id="JPSjPqsW3roWkfqV_JE0-30" value="1" style="edgeLabel;html=1;align=center;verticalAlign=middle;resizable=0;points=[];" vertex="1" connectable="0" parent="JPSjPqsW3roWkfqV_JE0-22">
          <mxGeometry x="-0.2603" y="1" relative="1" as="geometry">
            <mxPoint x="5" y="1" as="offset" />
          </mxGeometry>
        </mxCell>
        <mxCell id="JPSjPqsW3roWkfqV_JE0-23" value="" style="edgeStyle=orthogonalEdgeStyle;rounded=0;orthogonalLoop=1;jettySize=auto;html=1;" edge="1" parent="1" source="JPSjPqsW3roWkfqV_JE0-1" target="JPSjPqsW3roWkfqV_JE0-4">
          <mxGeometry relative="1" as="geometry" />
        </mxCell>
        <mxCell id="JPSjPqsW3roWkfqV_JE0-29" value="1" style="edgeLabel;html=1;align=center;verticalAlign=middle;resizable=0;points=[];" vertex="1" connectable="0" parent="JPSjPqsW3roWkfqV_JE0-23">
          <mxGeometry x="-0.0994" relative="1" as="geometry">
            <mxPoint x="2" as="offset" />
          </mxGeometry>
        </mxCell>
        <mxCell id="JPSjPqsW3roWkfqV_JE0-1" value="nRF52805&lt;div&gt;uC&lt;/div&gt;" style="rounded=0;whiteSpace=wrap;html=1;fillColor=#1ba1e2;fontColor=#ffffff;strokeColor=#006EAF;" vertex="1" parent="1">
          <mxGeometry x="490" y="325" width="120" height="200" as="geometry" />
        </mxCell>
        <mxCell id="JPSjPqsW3roWkfqV_JE0-2" value="Red LED" style="rounded=0;whiteSpace=wrap;html=1;fillColor=#60a917;fontColor=#ffffff;strokeColor=#2D7600;" vertex="1" parent="1">
          <mxGeometry x="810" y="355" width="120" height="40" as="geometry" />
        </mxCell>
        <mxCell id="JPSjPqsW3roWkfqV_JE0-16" value="" style="edgeStyle=orthogonalEdgeStyle;rounded=0;orthogonalLoop=1;jettySize=auto;html=1;" edge="1" parent="1" source="JPSjPqsW3roWkfqV_JE0-3" target="JPSjPqsW3roWkfqV_JE0-1">
          <mxGeometry relative="1" as="geometry" />
        </mxCell>
        <mxCell id="JPSjPqsW3roWkfqV_JE0-36" value="2" style="edgeLabel;html=1;align=center;verticalAlign=middle;resizable=0;points=[];" vertex="1" connectable="0" parent="JPSjPqsW3roWkfqV_JE0-16">
          <mxGeometry x="-0.0084" relative="1" as="geometry">
            <mxPoint as="offset" />
          </mxGeometry>
        </mxCell>
        <mxCell id="JPSjPqsW3roWkfqV_JE0-3" value="Accelerometer" style="rounded=0;whiteSpace=wrap;html=1;" vertex="1" parent="1">
          <mxGeometry x="330" y="405" width="120" height="40" as="geometry" />
        </mxCell>
        <mxCell id="JPSjPqsW3roWkfqV_JE0-4" value="Buzzer" style="rounded=0;whiteSpace=wrap;html=1;" vertex="1" parent="1">
          <mxGeometry x="650" y="405" width="120" height="40" as="geometry" />
        </mxCell>
        <mxCell id="JPSjPqsW3roWkfqV_JE0-19" value="" style="edgeStyle=orthogonalEdgeStyle;rounded=0;orthogonalLoop=1;jettySize=auto;html=1;" edge="1" parent="1" source="JPSjPqsW3roWkfqV_JE0-5" target="JPSjPqsW3roWkfqV_JE0-6">
          <mxGeometry relative="1" as="geometry" />
        </mxCell>
        <mxCell id="JPSjPqsW3roWkfqV_JE0-5" value="Battery" style="rounded=0;whiteSpace=wrap;html=1;" vertex="1" parent="1">
          <mxGeometry x="490" y="165" width="120" height="40" as="geometry" />
        </mxCell>
        <mxCell id="JPSjPqsW3roWkfqV_JE0-20" value="" style="edgeStyle=orthogonalEdgeStyle;rounded=0;orthogonalLoop=1;jettySize=auto;html=1;" edge="1" parent="1" source="JPSjPqsW3roWkfqV_JE0-6" target="JPSjPqsW3roWkfqV_JE0-1">
          <mxGeometry relative="1" as="geometry" />
        </mxCell>
        <mxCell id="JPSjPqsW3roWkfqV_JE0-6" value="Battery protection" style="rounded=0;whiteSpace=wrap;html=1;" vertex="1" parent="1">
          <mxGeometry x="490" y="245" width="120" height="40" as="geometry" />
        </mxCell>
        <mxCell id="JPSjPqsW3roWkfqV_JE0-13" value="" style="edgeStyle=orthogonalEdgeStyle;rounded=0;orthogonalLoop=1;jettySize=auto;html=1;" edge="1" parent="1" source="JPSjPqsW3roWkfqV_JE0-7" target="JPSjPqsW3roWkfqV_JE0-9">
          <mxGeometry relative="1" as="geometry" />
        </mxCell>
        <mxCell id="JPSjPqsW3roWkfqV_JE0-21" style="edgeStyle=orthogonalEdgeStyle;rounded=0;orthogonalLoop=1;jettySize=auto;html=1;exitX=0.5;exitY=0;exitDx=0;exitDy=0;entryX=0;entryY=0.5;entryDx=0;entryDy=0;" edge="1" parent="1" source="JPSjPqsW3roWkfqV_JE0-7" target="JPSjPqsW3roWkfqV_JE0-11">
          <mxGeometry relative="1" as="geometry" />
        </mxCell>
        <mxCell id="JPSjPqsW3roWkfqV_JE0-7" value="USB-C port" style="rounded=0;whiteSpace=wrap;html=1;fillColor=#60a917;fontColor=#ffffff;strokeColor=#2D7600;" vertex="1" parent="1">
          <mxGeometry x="170" y="355" width="120" height="40" as="geometry" />
        </mxCell>
        <mxCell id="JPSjPqsW3roWkfqV_JE0-25" value="" style="edgeStyle=orthogonalEdgeStyle;rounded=0;orthogonalLoop=1;jettySize=auto;html=1;" edge="1" parent="1" source="JPSjPqsW3roWkfqV_JE0-8" target="JPSjPqsW3roWkfqV_JE0-1">
          <mxGeometry relative="1" as="geometry" />
        </mxCell>
        <mxCell id="JPSjPqsW3roWkfqV_JE0-38" value="1" style="edgeLabel;html=1;align=center;verticalAlign=middle;resizable=0;points=[];" vertex="1" connectable="0" parent="JPSjPqsW3roWkfqV_JE0-25">
          <mxGeometry x="0.0402" relative="1" as="geometry">
            <mxPoint as="offset" />
          </mxGeometry>
        </mxCell>
        <mxCell id="JPSjPqsW3roWkfqV_JE0-8" value="Programming header" style="rounded=0;whiteSpace=wrap;html=1;" vertex="1" parent="1">
          <mxGeometry x="490" y="565" width="120" height="40" as="geometry" />
        </mxCell>
        <mxCell id="JPSjPqsW3roWkfqV_JE0-15" style="edgeStyle=orthogonalEdgeStyle;rounded=0;orthogonalLoop=1;jettySize=auto;html=1;exitX=1;exitY=0.5;exitDx=0;exitDy=0;entryX=0;entryY=0.25;entryDx=0;entryDy=0;" edge="1" parent="1" source="JPSjPqsW3roWkfqV_JE0-9" target="JPSjPqsW3roWkfqV_JE0-1">
          <mxGeometry relative="1" as="geometry" />
        </mxCell>
        <mxCell id="JPSjPqsW3roWkfqV_JE0-35" value="2" style="edgeLabel;html=1;align=center;verticalAlign=middle;resizable=0;points=[];" vertex="1" connectable="0" parent="JPSjPqsW3roWkfqV_JE0-15">
          <mxGeometry x="-0.0151" relative="1" as="geometry">
            <mxPoint as="offset" />
          </mxGeometry>
        </mxCell>
        <mxCell id="JPSjPqsW3roWkfqV_JE0-9" value="USB/UART interface" style="rounded=0;whiteSpace=wrap;html=1;" vertex="1" parent="1">
          <mxGeometry x="330" y="355" width="120" height="40" as="geometry" />
        </mxCell>
        <mxCell id="JPSjPqsW3roWkfqV_JE0-24" value="" style="edgeStyle=orthogonalEdgeStyle;rounded=0;orthogonalLoop=1;jettySize=auto;html=1;" edge="1" parent="1" source="JPSjPqsW3roWkfqV_JE0-10" target="JPSjPqsW3roWkfqV_JE0-2">
          <mxGeometry relative="1" as="geometry" />
        </mxCell>
        <mxCell id="JPSjPqsW3roWkfqV_JE0-10" value="LED driver" style="rounded=0;whiteSpace=wrap;html=1;" vertex="1" parent="1">
          <mxGeometry x="650" y="355" width="120" height="40" as="geometry" />
        </mxCell>
        <mxCell id="JPSjPqsW3roWkfqV_JE0-18" value="" style="edgeStyle=orthogonalEdgeStyle;rounded=0;orthogonalLoop=1;jettySize=auto;html=1;" edge="1" parent="1" source="JPSjPqsW3roWkfqV_JE0-11" target="JPSjPqsW3roWkfqV_JE0-5">
          <mxGeometry relative="1" as="geometry" />
        </mxCell>
        <mxCell id="JPSjPqsW3roWkfqV_JE0-11" value="Battery charger" style="rounded=0;whiteSpace=wrap;html=1;" vertex="1" parent="1">
          <mxGeometry x="330" y="165" width="120" height="40" as="geometry" />
        </mxCell>
        <mxCell id="JPSjPqsW3roWkfqV_JE0-17" style="edgeStyle=orthogonalEdgeStyle;rounded=0;orthogonalLoop=1;jettySize=auto;html=1;exitX=1;exitY=0.5;exitDx=0;exitDy=0;entryX=0;entryY=0.75;entryDx=0;entryDy=0;" edge="1" parent="1" source="JPSjPqsW3roWkfqV_JE0-12" target="JPSjPqsW3roWkfqV_JE0-1">
          <mxGeometry relative="1" as="geometry" />
        </mxCell>
        <mxCell id="JPSjPqsW3roWkfqV_JE0-37" value="1" style="edgeLabel;html=1;align=center;verticalAlign=middle;resizable=0;points=[];" vertex="1" connectable="0" parent="JPSjPqsW3roWkfqV_JE0-17">
          <mxGeometry x="-0.0084" y="1" relative="1" as="geometry">
            <mxPoint as="offset" />
          </mxGeometry>
        </mxCell>
        <mxCell id="JPSjPqsW3roWkfqV_JE0-12" value="Button" style="rounded=0;whiteSpace=wrap;html=1;fillColor=#60a917;fontColor=#ffffff;strokeColor=#2D7600;" vertex="1" parent="1">
          <mxGeometry x="330" y="455" width="120" height="40" as="geometry" />
        </mxCell>
        <mxCell id="JPSjPqsW3roWkfqV_JE0-39" value="Numbers represent GPIO pins used (not including power or SWD pins)" style="text;html=1;align=center;verticalAlign=middle;whiteSpace=wrap;rounded=0;" vertex="1" parent="1">
          <mxGeometry x="770" y="535" width="140" height="50" as="geometry" />
        </mxCell>
      </root>
    </mxGraphModel>
  </diagram>
</mxfile>
